<svg width="194" height="61" viewBox="0 0 194 61" fill="none" xmlns="http://www.w3.org/2000/svg">
<path d="M70.5966 20.9282C70.5067 20.9282 70.4607 20.9737 70.4607 21.0626V29.5293C70.4607 29.6192 70.5057 29.6636 70.5966 29.6636H81.8187V32.1924H70.5966C70.2222 32.1924 69.8702 32.1219 69.5407 31.9818C69.2112 31.8417 68.9267 31.6532 68.6882 31.4165C68.4486 31.1797 68.258 30.8995 68.1162 30.5739C67.9735 30.2482 67.9031 29.8994 67.9031 29.5293V21.0626C67.9031 20.6925 67.9735 20.3446 68.1162 20.0189C68.258 19.6933 68.4486 19.4131 68.6882 19.1763C68.9267 18.9396 69.2112 18.7512 69.5407 18.611C69.8702 18.4709 70.2222 18.4004 70.5966 18.4004H81.8187V20.9282H70.5966Z" fill="#142E78"/>
<path d="M92.7113 21.082C93.0731 21.082 93.4192 21.1526 93.7487 21.2927C94.0782 21.4338 94.3627 21.6212 94.6012 21.858C94.8398 22.0947 95.0304 22.3749 95.1732 22.7015C95.3149 23.0272 95.3863 23.3683 95.3863 23.7258V32.1926H86.6447C86.2693 32.1926 85.9212 32.122 85.5976 31.9819C85.275 31.8418 84.9934 31.6534 84.7548 31.4166C84.5153 31.1799 84.3246 30.9026 84.1829 30.5837C84.0401 30.2648 83.9697 29.9198 83.9697 29.5488V25.3724H92.8463V23.7249C92.8463 23.636 92.8013 23.5905 92.7104 23.5905H83.9688V21.0811H92.7113V21.082ZM92.8472 27.9012H86.5098V29.5488C86.5098 29.6386 86.5548 29.6831 86.6457 29.6831H92.8482V27.9012H92.8472Z" fill="#142E78"/>
<path d="M108.721 24.2051H106.182V23.7258C106.182 23.6369 106.137 23.5915 106.046 23.5915H99.9794C99.8885 23.5915 99.8435 23.6369 99.8435 23.7258V25.2584C99.8435 25.3347 99.8885 25.3734 99.9794 25.3734H106.046C106.42 25.3734 106.77 25.4439 107.093 25.584C107.416 25.7241 107.7 25.9126 107.946 26.1493C108.191 26.3861 108.382 26.6663 108.518 26.9919C108.654 27.3176 108.721 27.6597 108.721 28.0172V29.5497C108.721 29.9198 108.654 30.2658 108.518 30.5846C108.382 30.9045 108.191 31.1818 107.946 31.4176C107.7 31.6543 107.416 31.8428 107.093 31.9829C106.77 32.123 106.421 32.1935 106.046 32.1935H99.9794C99.605 32.1935 99.2559 32.123 98.9323 31.9829C98.6097 31.8428 98.3281 31.6543 98.0895 31.4176C97.85 31.1809 97.6593 30.9035 97.5176 30.5846C97.3758 30.2658 97.3044 29.9208 97.3044 29.5497V29.0705H99.8435V29.5497C99.8435 29.6396 99.8885 29.6841 99.9794 29.6841H106.046C106.136 29.6841 106.182 29.6396 106.182 29.5497V28.0172C106.182 27.9408 106.137 27.9022 106.046 27.9022H99.9794C99.605 27.9022 99.2559 27.8326 98.9323 27.6915C98.6097 27.5514 98.3281 27.363 98.0895 27.1263C97.85 26.8905 97.6593 26.6122 97.5176 26.2933C97.3758 25.9744 97.3044 25.6294 97.3044 25.2584V23.7258C97.3044 23.3683 97.3758 23.0262 97.5176 22.7016C97.6593 22.3759 97.85 22.0947 98.0895 21.858C98.3281 21.6212 98.6097 21.4338 98.9323 21.2927C99.255 21.1526 99.604 21.082 99.9794 21.082H106.046C106.42 21.082 106.77 21.1526 107.093 21.2927C107.416 21.4338 107.7 21.6212 107.946 21.858C108.191 22.0947 108.382 22.3749 108.518 22.7016C108.654 23.0272 108.721 23.3683 108.721 23.7258V24.2051Z" fill="#142E78"/>
<path d="M119.866 21.082C120.228 21.082 120.574 21.1526 120.903 21.2927C121.233 21.4338 121.517 21.6212 121.756 21.858C121.994 22.0947 122.185 22.3749 122.328 22.7016C122.469 23.0272 122.541 23.3683 122.541 23.7258V29.5497C122.541 29.9198 122.469 30.2658 122.328 30.5847C122.185 30.9045 121.994 31.1818 121.756 31.4176C121.516 31.6543 121.233 31.8428 120.903 31.9829C120.574 32.123 120.228 32.1935 119.866 32.1935H113.663V36.5999H111.124V21.082H119.866ZM120.001 23.7258C120.001 23.6369 119.956 23.5915 119.865 23.5915H113.798C113.707 23.5915 113.662 23.6369 113.662 23.7258V29.5497C113.662 29.6396 113.707 29.6841 113.798 29.6841H119.865C119.955 29.6841 120.001 29.6396 120.001 29.5497V23.7258Z" fill="#142E78"/>
<path d="M126.901 17.4429V19.9707H124.362V17.4429H126.901ZM124.362 21.082H126.901V32.1925H124.362V21.082Z" fill="#142E78"/>
<path d="M138.026 21.082C138.387 21.082 138.733 21.1526 139.062 21.2927C139.391 21.4338 139.676 21.6212 139.915 21.858C140.155 22.0947 140.345 22.3749 140.487 22.7015C140.629 23.0272 140.701 23.3683 140.701 23.7258V32.1926H131.959C131.584 32.1926 131.235 32.122 130.914 31.9819C130.59 31.8418 130.31 31.6534 130.07 31.4166C129.83 31.1799 129.64 30.9026 129.498 30.5837C129.355 30.2648 129.285 29.9198 129.285 29.5488V25.3724H138.161V23.7249C138.161 23.636 138.115 23.5905 138.026 23.5905H129.285V21.0811H138.026V21.082ZM138.161 27.9012H131.824V29.5488C131.824 29.6386 131.869 29.6831 131.959 29.6831H138.161V27.9012Z" fill="#142E78"/>
<path d="M151.748 21.082C152.109 21.082 152.456 21.1526 152.785 21.2927C153.115 21.4338 153.398 21.6212 153.638 21.858C153.877 22.0947 154.068 22.3749 154.21 22.7016C154.351 23.0272 154.423 23.3683 154.423 23.7258V32.1926H151.885V23.7258C151.885 23.6369 151.839 23.5915 151.749 23.5915H145.682C145.591 23.5915 145.546 23.6369 145.546 23.7258V32.1926H143.007V21.082H151.748Z" fill="#142E78"/>
<path d="M170.8 22.1158H168.223V21.0616C168.223 20.9727 168.184 20.9273 168.107 20.9273H159.54C159.45 20.9273 159.404 20.9727 159.404 21.0616V23.8967C159.404 23.9866 159.45 24.031 159.54 24.031H168.107C168.468 24.031 168.814 24.1016 169.144 24.2417C169.473 24.3828 169.761 24.5702 170.006 24.807C170.252 25.0437 170.445 25.3239 170.588 25.6496C170.73 25.9752 170.801 26.3241 170.801 26.6942V29.5293C170.801 29.8994 170.73 30.2482 170.588 30.5739C170.446 30.8995 170.252 31.1797 170.006 31.4165C169.761 31.6532 169.472 31.8416 169.144 31.9818C168.814 32.1219 168.468 32.1924 168.107 32.1924H159.54C159.166 32.1924 158.814 32.1219 158.484 31.9818C158.155 31.8416 157.87 31.6532 157.632 31.4165C157.392 31.1797 157.201 30.8995 157.06 30.5739C156.917 30.2482 156.846 29.8994 156.846 29.5293V28.476H159.404V29.5293C159.404 29.6191 159.45 29.6636 159.54 29.6636H168.107C168.184 29.6636 168.223 29.6191 168.223 29.5293V26.6942C168.223 26.6043 168.184 26.5598 168.107 26.5598H159.54C159.166 26.5598 158.814 26.4893 158.484 26.3482C158.155 26.2081 157.87 26.0197 157.632 25.7839C157.392 25.5472 157.201 25.2669 157.06 24.9403C156.917 24.6147 156.846 24.2668 156.846 23.8967V21.0616C156.846 20.6915 156.917 20.3436 157.06 20.018C157.201 19.6923 157.392 19.4121 157.632 19.1754C157.87 18.9386 158.155 18.7502 158.484 18.6101C158.814 18.47 159.166 18.3994 159.54 18.3994H168.107C168.468 18.3994 168.814 18.47 169.144 18.6101C169.473 18.7502 169.761 18.9386 170.006 19.1754C170.252 19.4121 170.445 19.6923 170.588 20.018C170.73 20.3436 170.801 20.6924 170.801 21.0616V22.1158H170.8Z" fill="#F15A22"/>
<path d="M181.945 21.082C182.307 21.082 182.653 21.1526 182.981 21.2927C183.311 21.4338 183.595 21.6212 183.835 21.858C184.074 22.0947 184.264 22.3749 184.407 22.7015C184.549 23.0272 184.62 23.3683 184.62 23.7258V32.1926H175.878C175.504 32.1926 175.155 32.122 174.832 31.9819C174.509 31.8418 174.228 31.6534 173.988 31.4166C173.749 31.1799 173.559 30.9026 173.417 30.5837C173.275 30.2648 173.203 29.9198 173.203 29.5488V25.3724H182.081V23.7249C182.081 23.636 182.035 23.5905 181.945 23.5905H173.203V21.0811H181.945V21.082ZM182.081 27.9012H175.742V29.5488C175.742 29.6386 175.788 29.6831 175.878 29.6831H182.081V27.9012Z" fill="#F15A22"/>
<path d="M189.62 23.5915V29.5487C189.62 29.6386 189.665 29.683 189.756 29.683H194.001V32.1925H189.756C189.381 32.1925 189.032 32.122 188.709 31.9819C188.386 31.8417 188.102 31.6533 187.856 31.4166C187.611 31.1798 187.42 30.9025 187.284 30.5836C187.148 30.2647 187.081 29.9198 187.081 29.5487V17.4429H189.62V21.082H194V23.5915H189.62Z" fill="#F15A22"/>
<path d="M29.2352 20.2624L26.6795 22.3893C26.9034 22.3893 27.1283 22.3893 27.3522 22.3893C33.7639 22.3893 39.0102 27.5744 39.0102 33.9114C39.0102 40.2484 33.7639 45.4336 27.3522 45.4336C20.9404 45.4336 15.6941 40.2484 15.6941 33.9114C15.6941 30.7207 16.9944 27.8402 19.1023 25.7568L41.521 7.4106L40.0857 5.68188L17.6221 24.0735C15.0214 26.555 13.4072 30.0559 13.4072 33.9114C13.4072 41.4892 19.6401 47.6494 27.3072 47.6494C34.9743 47.6494 41.2071 41.4892 41.2071 33.9114C41.2521 26.9541 36.0058 21.193 29.2352 20.2624Z" fill="#142E78"/>
<path d="M33.54 16.7617L31.4771 18.4459C38.3826 20.2626 43.494 26.4672 43.494 33.8681C43.494 42.6431 36.2297 49.8218 27.3522 49.8218C18.4287 49.8218 11.2104 42.6421 11.2104 33.8681C11.2104 29.3477 13.1384 25.2265 16.2328 22.3459L34.1677 7.63203L32.7325 5.90332L14.7526 20.6172C11.1654 23.9413 8.96851 28.6385 8.96851 33.8681C8.96851 43.8838 17.2193 52.0385 27.3532 52.0385C37.487 52.0385 45.7368 43.8838 45.7368 33.8681C45.7368 26.0237 40.6245 19.2876 33.54 16.7617Z" fill="#142E78"/>
<path d="M37.396 13.6153L35.468 15.1662C42.7773 18.3125 47.9337 25.4921 47.9337 33.9124C47.9337 45.1689 38.6964 54.2985 27.3072 54.2985C15.9179 54.2985 6.68162 45.1689 6.68162 33.9124C6.68162 28.018 9.23732 22.7004 13.2733 18.9773L34.2127 1.82735L32.7774 0.0986328L11.793 17.2495C7.26432 21.3708 4.3938 27.3087 4.3938 33.868C4.3938 46.3207 14.6616 56.4698 27.2622 56.4698C39.8628 56.4698 50.1306 46.3217 50.1306 33.868C50.2205 25.0051 44.9742 17.293 37.396 13.6153Z" fill="#142E78"/>
<path d="M41.1181 10.557L39.28 12.0635C47.1271 16.2737 52.4633 24.4718 52.4633 33.8671C52.4633 47.5606 41.2091 58.6847 27.3531 58.6847C13.4971 58.6847 2.24186 47.5616 2.24186 33.8681C2.24186 26.644 5.38028 20.0857 10.4477 15.5654L24.6165 3.95428L23.1813 2.27002L8.96746 13.8811C3.45226 18.845 0 25.9792 0 33.8681C0 48.7588 12.2858 60.9014 27.3521 60.9014C42.4185 60.9014 54.7042 48.7588 54.7042 33.8681C54.7042 23.9413 49.234 15.2552 41.1181 10.557Z" fill="#142E78"/>
<path d="M20.1204 29.9587L23.6082 33.4058L27.0959 29.9587L23.6082 26.5115L20.1204 29.9587Z" fill="#F15A22"/>
<path d="M27.7293 37.4799L31.217 40.927L34.7048 37.4799L31.217 34.0328L27.7293 37.4799Z" fill="#F15A22"/>
<path d="M27.4125 35.7128C28.527 35.7128 29.4305 34.8198 29.4305 33.7183C29.4305 32.6168 28.527 31.7239 27.4125 31.7239C26.298 31.7239 25.3945 32.6168 25.3945 33.7183C25.3945 34.8198 26.298 35.7128 27.4125 35.7128Z" fill="#F15A22"/>
<path d="M73.4906 47.5615H72.4093L72.2577 45.167C72.2079 44.3109 72.1825 43.6306 72.1825 43.1281V42.8305L71.1265 46.9402H70.0784L68.9551 42.8218C68.9668 43.1871 68.9717 43.4634 68.9717 43.6509C68.9717 44.1543 68.9551 44.6703 68.9218 45.2008L68.7791 47.5625H67.7056L68.167 41.8362H69.5925L70.624 45.8463L71.5968 41.8362H73.0389L73.4906 47.5615Z" fill="#142E78"/>
<path d="M75.5409 41.1433C75.667 41.267 75.7296 41.4216 75.7296 41.6032C75.7296 41.7849 75.667 41.9376 75.5409 42.0593C75.4157 42.1811 75.2515 42.241 75.0511 42.241C74.8555 42.241 74.6942 42.1801 74.5691 42.0593C74.4429 41.9376 74.3804 41.7859 74.3804 41.6032C74.3804 41.4216 74.4429 41.267 74.5691 41.1433C74.6942 41.0196 74.8555 40.9568 75.0511 40.9568C75.2515 40.9568 75.4148 41.0196 75.5409 41.1433ZM75.5947 43.1783V47.5615H74.5212V43.1783H75.5947Z" fill="#142E78"/>
<path d="M79.8632 43.5755L79.4438 44.1968C79.0634 43.9591 78.6919 43.8412 78.3282 43.8412C78.116 43.8412 77.9508 43.8809 77.8335 43.9611C77.7162 44.0413 77.6575 44.1476 77.6575 44.2799C77.6575 44.3795 77.6829 44.4616 77.7328 44.5292C77.7826 44.595 77.8736 44.6578 78.0046 44.7157C78.1356 44.7737 78.3302 44.8385 78.5873 44.9109C79.0683 45.0375 79.4242 45.2066 79.6569 45.4163C79.8886 45.627 80.005 45.9198 80.005 46.2947C80.005 46.7315 79.826 47.0726 79.4682 47.318C79.1104 47.5634 78.6665 47.6862 78.1346 47.6862C77.7709 47.6862 77.4405 47.6311 77.1413 47.5209C76.8421 47.4108 76.584 47.2591 76.366 47.0648L76.9027 46.4677C77.2879 46.7546 77.6907 46.8986 78.1102 46.8986C78.3507 46.8986 78.5423 46.8513 78.6851 46.7575C78.8278 46.6638 78.8992 46.5334 78.8992 46.3681C78.8992 46.2406 78.8728 46.1401 78.819 46.0657C78.7652 45.9913 78.6714 45.9246 78.5345 45.8666C78.3976 45.8086 78.1835 45.7381 77.8931 45.656C77.4405 45.5342 77.108 45.3651 76.8959 45.1457C76.6837 44.9283 76.5771 44.6558 76.5771 44.3302C76.5771 44.0867 76.6485 43.8693 76.7913 43.675C76.934 43.4818 77.1344 43.3301 77.3945 43.2189C77.6546 43.1088 77.9528 43.0527 78.2881 43.0527C78.8845 43.0537 79.4105 43.2276 79.8632 43.5755Z" fill="#142E78"/>
<path d="M83.7868 43.5755L83.3673 44.1968C82.987 43.9591 82.6155 43.8412 82.2518 43.8412C82.0396 43.8412 81.8744 43.8809 81.7571 43.9611C81.6398 44.0413 81.5811 44.1476 81.5811 44.2799C81.5811 44.3795 81.6065 44.4616 81.6564 44.5292C81.7062 44.595 81.7972 44.6578 81.9282 44.7157C82.0592 44.7737 82.2537 44.8385 82.5109 44.9109C82.9919 45.0375 83.3478 45.2066 83.5805 45.4163C83.8122 45.627 83.9286 45.9198 83.9286 46.2947C83.9286 46.7315 83.7496 47.0726 83.3918 47.318C83.034 47.5634 82.5901 47.6862 82.0582 47.6862C81.6945 47.6862 81.364 47.6311 81.0649 47.5209C80.7657 47.4108 80.5076 47.2591 80.2896 47.0648L80.8263 46.4677C81.2115 46.7546 81.6143 46.8986 82.0338 46.8986C82.2743 46.8986 82.4659 46.8513 82.6086 46.7575C82.7514 46.6638 82.8228 46.5334 82.8228 46.3681C82.8228 46.2406 82.7964 46.1401 82.7426 46.0657C82.6888 45.9913 82.595 45.9246 82.4581 45.8666C82.3212 45.8086 82.1071 45.7381 81.8167 45.656C81.364 45.5342 81.0316 45.3651 80.8195 45.1457C80.6073 44.9283 80.5007 44.6558 80.5007 44.3302C80.5007 44.0867 80.5721 43.8693 80.7148 43.675C80.8576 43.4818 81.058 43.3301 81.3181 43.2189C81.5782 43.1088 81.8764 43.0527 82.2117 43.0527C82.8091 43.0537 83.3341 43.2276 83.7868 43.5755Z" fill="#142E78"/>
<path d="M85.8204 41.1433C85.9466 41.267 86.0091 41.4216 86.0091 41.6032C86.0091 41.7849 85.9466 41.9376 85.8204 42.0593C85.6953 42.1811 85.531 42.241 85.3306 42.241C85.1351 42.241 84.9737 42.1801 84.8486 42.0593C84.7225 41.9376 84.6599 41.7859 84.6599 41.6032C84.6599 41.4216 84.7225 41.267 84.8486 41.1433C84.9737 41.0196 85.1351 40.9568 85.3306 40.9568C85.531 40.9568 85.6943 41.0196 85.8204 41.1433ZM85.8742 43.1783V47.5615H84.8007V43.1783H85.8742Z" fill="#142E78"/>
<path d="M90.5074 43.6712C90.8731 44.0828 91.0569 44.6481 91.0569 45.3661C91.0569 45.8251 90.9728 46.229 90.8046 46.5797C90.6374 46.9305 90.3969 47.203 90.0841 47.3953C89.7712 47.5886 89.3997 47.6852 88.9685 47.6852C88.3144 47.6852 87.8031 47.4794 87.4345 47.0677C87.0649 46.6561 86.8811 46.0889 86.8811 45.3651C86.8811 44.9061 86.9652 44.5032 87.1324 44.1553C87.3005 43.8074 87.542 43.5359 87.8578 43.3426C88.1736 43.1494 88.5471 43.0527 88.9773 43.0527C89.6314 43.0537 90.1417 43.2595 90.5074 43.6712ZM88.0133 45.3661C88.0133 45.885 88.0925 46.2676 88.2518 46.514C88.4112 46.7595 88.6498 46.8822 88.9685 46.8822C89.2872 46.8822 89.5258 46.7585 89.6852 46.5092C89.8445 46.2609 89.9247 45.8801 89.9247 45.3661C89.9247 44.852 89.8445 44.4722 89.6852 44.2268C89.5258 43.9814 89.2902 43.8577 88.9773 43.8577C88.334 43.8577 88.0133 44.3601 88.0133 45.3661Z" fill="#142E78"/>
<path d="M95.3539 43.4064C95.5749 43.6412 95.6854 43.9678 95.6854 44.3882V47.5615H94.6118V44.5534C94.6118 44.2935 94.5659 44.1118 94.474 44.0065C94.3821 43.9021 94.2462 43.849 94.0673 43.849C93.8825 43.849 93.7163 43.906 93.5686 44.019C93.42 44.1321 93.2763 44.2973 93.1365 44.5119V47.5615H92.063V43.1784H92.9938L93.0778 43.7504C93.4415 43.2856 93.8913 43.0537 94.428 43.0537C94.824 43.0537 95.133 43.1706 95.3539 43.4064Z" fill="#142E78"/>
<path d="M100.548 45.6975H97.765C97.7992 46.1227 97.9106 46.4271 98.1003 46.6097C98.29 46.7914 98.5422 46.8832 98.8551 46.8832C99.0506 46.8832 99.2354 46.8513 99.4085 46.7885C99.5815 46.7257 99.7663 46.6271 99.9619 46.4947L100.407 47.0996C99.9149 47.492 99.3664 47.6881 98.7632 47.6881C98.0866 47.6881 97.5655 47.4842 97.1989 47.0755C96.8332 46.6667 96.6504 46.1092 96.6504 45.4019C96.6504 44.9545 96.7286 44.5525 96.885 44.1959C97.0415 43.8403 97.2683 43.561 97.5645 43.3591C97.8608 43.1571 98.2128 43.0566 98.6205 43.0566C99.2413 43.0566 99.7213 43.2518 100.063 43.6413C100.404 44.0307 100.574 44.5737 100.574 45.2695C100.573 45.3217 100.565 45.4647 100.548 45.6975ZM99.5082 44.9603C99.5082 44.192 99.2198 43.8084 98.6449 43.8084C98.3819 43.8084 98.1766 43.9031 98.0289 44.0935C97.8803 44.2848 97.7923 44.5902 97.765 45.0095H99.5092V44.9603H99.5082Z" fill="#142E78"/>
<path d="M105.269 41.4216V47.5625H104.321L104.246 47.0078C104.106 47.2175 103.928 47.3837 103.714 47.5045C103.499 47.6262 103.255 47.6862 102.98 47.6862C102.438 47.6862 102.021 47.4794 101.73 47.0648C101.44 46.6503 101.294 46.0869 101.294 45.3738C101.294 44.9264 101.367 44.5273 101.512 44.1765C101.657 43.8258 101.866 43.5514 102.137 43.3523C102.408 43.1532 102.723 43.0537 103.081 43.0537C103.505 43.0537 103.878 43.2112 104.196 43.5262V41.3057L105.269 41.4216ZM103.785 46.7459C103.93 46.6541 104.067 46.5131 104.195 46.3188V44.3128C104.066 44.1582 103.936 44.0422 103.805 43.9649C103.674 43.8876 103.522 43.849 103.349 43.849C103.063 43.849 102.838 43.9746 102.673 44.2258C102.508 44.4771 102.426 44.8568 102.426 45.3651C102.426 45.9062 102.498 46.2947 102.644 46.5295C102.789 46.7643 103.001 46.8812 103.281 46.8812C103.472 46.8822 103.639 46.8368 103.785 46.7459Z" fill="#142E78"/>
<path d="M111.197 47.3547C111.04 47.4648 110.865 47.5479 110.672 47.603C110.48 47.6581 110.282 47.6861 110.081 47.6861C109.645 47.6803 109.314 47.5576 109.088 47.318C108.861 47.0773 108.748 46.7227 108.748 46.2521V43.9407H108.052V43.1783H108.748V42.2082L109.821 42.0845V43.1783H110.852L110.744 43.9407H109.821V46.228C109.821 46.4435 109.859 46.5981 109.934 46.6918C110.01 46.7855 110.129 46.8329 110.291 46.8329C110.453 46.8329 110.629 46.7807 110.819 46.6754L111.197 47.3547Z" fill="#142E78"/>
<path d="M114.999 43.6712C115.365 44.0828 115.548 44.6481 115.548 45.3661C115.548 45.8251 115.464 46.229 115.296 46.5797C115.129 46.9305 114.888 47.203 114.576 47.3953C114.263 47.5886 113.891 47.6852 113.46 47.6852C112.806 47.6852 112.295 47.4794 111.926 47.0677C111.556 46.6561 111.373 46.0889 111.373 45.3651C111.373 44.9061 111.457 44.5032 111.624 44.1553C111.792 43.8074 112.033 43.5359 112.349 43.3426C112.665 43.1494 113.039 43.0527 113.469 43.0527C114.123 43.0537 114.633 43.2595 114.999 43.6712ZM112.505 45.3661C112.505 45.885 112.584 46.2676 112.743 46.514C112.903 46.7595 113.141 46.8822 113.46 46.8822C113.779 46.8822 114.017 46.7585 114.177 46.5092C114.336 46.2609 114.416 45.8801 114.416 45.3661C114.416 44.852 114.336 44.4722 114.177 44.2268C114.017 43.9814 113.782 43.8577 113.469 43.8577C112.825 43.8577 112.505 44.3601 112.505 45.3661Z" fill="#142E78"/>
<path d="M119.724 41.3057V47.5625H118.651V41.4216L119.724 41.3057ZM122.383 43.1784L120.906 45.109L122.524 47.5615H121.292L119.766 45.167L121.25 43.1784H122.383Z" fill="#142E78"/>
<path d="M126.65 45.6975H123.867C123.901 46.1227 124.012 46.4271 124.202 46.6097C124.392 46.7924 124.643 46.8832 124.957 46.8832C125.152 46.8832 125.336 46.8513 125.509 46.7885C125.682 46.7247 125.867 46.6271 126.063 46.4947L126.507 47.0996C126.016 47.492 125.469 47.6881 124.864 47.6881C124.188 47.6881 123.667 47.4842 123.299 47.0755C122.934 46.6667 122.751 46.1092 122.751 45.4019C122.751 44.9545 122.829 44.5525 122.986 44.1959C123.143 43.8403 123.368 43.561 123.665 43.3591C123.961 43.1571 124.313 43.0566 124.721 43.0566C125.341 43.0566 125.822 43.2518 126.163 43.6413C126.503 44.0307 126.674 44.5737 126.674 45.2695C126.674 45.3217 126.667 45.4647 126.65 45.6975ZM125.61 44.9603C125.61 44.192 125.321 43.8084 124.745 43.8084C124.483 43.8084 124.277 43.9031 124.13 44.0935C123.981 44.2848 123.894 44.5902 123.865 45.0095H125.609V44.9603H125.61Z" fill="#142E78"/>
<path d="M131.253 45.6975H128.47C128.503 46.1227 128.615 46.4271 128.805 46.6097C128.996 46.7914 129.247 46.8832 129.56 46.8832C129.755 46.8832 129.94 46.8513 130.113 46.7885C130.286 46.7247 130.471 46.6271 130.666 46.4947L131.11 47.0996C130.619 47.492 130.071 47.6881 129.467 47.6881C128.79 47.6881 128.269 47.4842 127.903 47.0755C127.537 46.6667 127.353 46.1092 127.353 45.4019C127.353 44.9545 127.431 44.5525 127.588 44.1959C127.745 43.8403 127.971 43.561 128.267 43.3591C128.563 43.1571 128.915 43.0566 129.323 43.0566C129.943 43.0566 130.424 43.2518 130.765 43.6413C131.105 44.0307 131.277 44.5737 131.277 45.2695C131.278 45.3217 131.27 45.4647 131.253 45.6975ZM130.214 44.9603C130.214 44.192 129.925 43.8084 129.349 43.8084C129.086 43.8084 128.881 43.9031 128.734 44.0935C128.586 44.2848 128.498 44.5902 128.47 45.0095H130.214V44.9603Z" fill="#142E78"/>
<path d="M135.781 43.6586C136.049 44.0616 136.184 44.6288 136.184 45.3574C136.184 45.8106 136.115 46.2126 135.977 46.5633C135.84 46.9151 135.64 47.1895 135.374 47.3885C135.109 47.5876 134.794 47.6862 134.431 47.6862C133.961 47.6862 133.589 47.5267 133.316 47.2059V49.2525L132.242 49.3685V43.1784H133.181L133.24 43.7166C133.413 43.4963 133.611 43.3301 133.835 43.2199C134.058 43.1098 134.294 43.0537 134.539 43.0537C135.098 43.0537 135.512 43.2547 135.781 43.6586ZM135.06 45.3661C135.06 44.8298 134.99 44.4433 134.851 44.2055C134.711 43.9678 134.502 43.8499 134.222 43.8499C134.043 43.8499 133.875 43.9041 133.72 44.0113C133.562 44.1186 133.429 44.2635 133.317 44.4462V46.4184C133.523 46.7228 133.795 46.8745 134.13 46.8745C134.749 46.8735 135.06 46.371 135.06 45.3661Z" fill="#142E78"/>
<path d="M141.482 47.5788C141.303 48.1199 141.031 48.5412 140.668 48.8417C140.305 49.1432 139.807 49.3181 139.176 49.3683L139.067 48.5972C139.357 48.5528 139.591 48.4909 139.767 48.4107C139.943 48.3305 140.085 48.2242 140.19 48.0909C140.296 47.9585 140.394 47.7817 140.484 47.5604H140.114L138.705 43.1772H139.845L140.809 46.8569L141.815 43.1772H142.922L141.482 47.5788Z" fill="#142E78"/>
<path d="M146.869 43.6712C147.235 44.0828 147.418 44.6481 147.418 45.3661C147.418 45.8251 147.334 46.229 147.166 46.5797C146.998 46.9305 146.758 47.203 146.445 47.3953C146.132 47.5886 145.76 47.6852 145.33 47.6852C144.676 47.6852 144.165 47.4794 143.795 47.0677C143.426 46.6561 143.242 46.0889 143.242 45.3651C143.242 44.9061 143.326 44.5032 143.494 44.1553C143.662 43.8074 143.904 43.5359 144.219 43.3426C144.535 43.1494 144.908 43.0527 145.339 43.0527C145.993 43.0537 146.503 43.2595 146.869 43.6712ZM144.375 45.3661C144.375 45.885 144.455 46.2676 144.613 46.514C144.773 46.7595 145.012 46.8822 145.331 46.8822C145.65 46.8822 145.888 46.7585 146.049 46.5092C146.208 46.2609 146.287 45.8801 146.287 45.3661C146.287 44.852 146.207 44.4722 146.049 44.2268C145.889 43.9814 145.653 43.8577 145.34 43.8577C144.697 43.8577 144.375 44.3601 144.375 45.3661Z" fill="#142E78"/>
<path d="M151.971 47.5614H151.041L150.982 46.9487C150.82 47.1971 150.628 47.3826 150.407 47.5034C150.187 47.6251 149.925 47.685 149.623 47.685C149.226 47.685 148.92 47.5652 148.705 47.3246C148.489 47.084 148.382 46.7516 148.382 46.3255V43.1763H149.456V46.1921C149.456 46.4414 149.499 46.6173 149.586 46.7226C149.673 46.8279 149.811 46.8801 150 46.8801C150.342 46.8801 150.641 46.6733 150.898 46.2588V43.1763H151.971V47.5614Z" fill="#142E78"/>
<path d="M157.929 43.1784C158.16 43.2615 158.38 43.391 158.587 43.5678L158.109 44.2056C157.957 44.0954 157.811 44.0152 157.672 43.9659C157.533 43.9157 157.379 43.8915 157.211 43.8915C156.546 43.8915 156.214 44.3921 156.214 45.3922C156.214 45.9005 156.3 46.2657 156.473 46.4899C156.646 46.7131 156.892 46.8252 157.211 46.8252C157.367 46.8252 157.511 46.8011 157.643 46.7508C157.774 46.7006 157.929 46.6204 158.109 46.5102L158.587 47.1818C158.167 47.519 157.689 47.6872 157.153 47.6872C156.728 47.6872 156.359 47.5944 156.047 47.4098C155.734 47.2243 155.493 46.9605 155.325 46.6184C155.157 46.2754 155.073 45.8724 155.073 45.4086C155.073 44.9448 155.157 44.5351 155.325 44.1775C155.493 43.8219 155.733 43.5446 156.047 43.3494C156.359 43.1533 156.725 43.0547 157.145 43.0547C157.436 43.0537 157.697 43.0953 157.929 43.1784Z" fill="#142E78"/>
<path d="M162.54 43.6712C162.906 44.0828 163.09 44.6481 163.09 45.3661C163.09 45.8251 163.006 46.229 162.838 46.5797C162.669 46.9305 162.43 47.203 162.116 47.3953C161.803 47.5886 161.432 47.6852 161.001 47.6852C160.347 47.6852 159.836 47.4794 159.466 47.0677C159.098 46.6561 158.913 46.0889 158.913 45.3651C158.913 44.9061 158.997 44.5032 159.165 44.1553C159.334 43.8074 159.575 43.5359 159.891 43.3426C160.207 43.1494 160.579 43.0527 161.01 43.0527C161.664 43.0537 162.175 43.2595 162.54 43.6712ZM160.046 45.3661C160.046 45.885 160.126 46.2676 160.285 46.514C160.444 46.7595 160.684 46.8822 161.002 46.8822C161.321 46.8822 161.56 46.7585 161.72 46.5092C161.879 46.2609 161.959 45.8801 161.959 45.3661C161.959 44.852 161.878 44.4722 161.72 44.2268C161.561 43.9814 161.324 43.8577 161.011 43.8577C160.368 43.8577 160.046 44.3601 160.046 45.3661Z" fill="#142E78"/>
<path d="M167.387 43.4064C167.608 43.6412 167.718 43.9678 167.718 44.3882V47.5615H166.645V44.5534C166.645 44.2935 166.599 44.1118 166.506 44.0065C166.414 43.9021 166.278 43.849 166.099 43.849C165.915 43.849 165.748 43.906 165.601 44.019C165.453 44.1321 165.308 44.2973 165.168 44.5119V47.5615H164.095V43.1784H165.026L165.11 43.7504C165.473 43.2856 165.923 43.0537 166.459 43.0537C166.857 43.0537 167.167 43.1706 167.387 43.4064Z" fill="#142E78"/>
<path d="M172.258 43.4064C172.479 43.6412 172.589 43.9678 172.589 44.3882V47.5615H171.516V44.5534C171.516 44.2935 171.47 44.1118 171.377 44.0065C171.285 43.9021 171.149 43.849 170.97 43.849C170.786 43.849 170.619 43.906 170.471 44.019C170.324 44.1321 170.179 44.2973 170.039 44.5119V47.5615H168.966V43.1784H169.897L169.981 43.7504C170.343 43.2856 170.794 43.0537 171.33 43.0537C171.729 43.0537 172.038 43.1706 172.258 43.4064Z" fill="#142E78"/>
<path d="M177.452 45.6975H174.669C174.702 46.1227 174.814 46.4271 175.004 46.6097C175.195 46.7914 175.446 46.8832 175.759 46.8832C175.954 46.8832 176.139 46.8513 176.312 46.7885C176.485 46.7257 176.67 46.6271 176.866 46.4947L177.31 47.0996C176.818 47.492 176.27 47.6881 175.666 47.6881C174.989 47.6881 174.468 47.4842 174.102 47.0755C173.736 46.6667 173.552 46.1092 173.552 45.4019C173.552 44.9545 173.63 44.5525 173.787 44.1959C173.944 43.8403 174.17 43.561 174.466 43.3591C174.763 43.1571 175.115 43.0566 175.522 43.0566C176.142 43.0566 176.623 43.2518 176.964 43.6413C177.305 44.0307 177.476 44.5737 177.476 45.2695C177.478 45.3217 177.469 45.4647 177.452 45.6975ZM176.413 44.9603C176.413 44.192 176.125 43.8084 175.549 43.8084C175.286 43.8084 175.08 43.9031 174.933 44.0935C174.785 44.2848 174.697 44.5902 174.669 45.0095H176.413V44.9603Z" fill="#142E78"/>
<path d="M181.011 43.1784C181.243 43.2615 181.463 43.391 181.669 43.5678L181.191 44.2056C181.039 44.0954 180.894 44.0152 180.755 43.9659C180.615 43.9157 180.462 43.8915 180.294 43.8915C179.629 43.8915 179.296 44.3921 179.296 45.3922C179.296 45.9005 179.382 46.2657 179.555 46.4899C179.728 46.7131 179.975 46.8252 180.294 46.8252C180.45 46.8252 180.594 46.8011 180.726 46.7508C180.857 46.7006 181.011 46.6204 181.191 46.5102L181.669 47.1818C181.25 47.519 180.772 47.6872 180.236 47.6872C179.811 47.6872 179.442 47.5944 179.129 47.4098C178.816 47.2243 178.576 46.9605 178.408 46.6184C178.239 46.2754 178.155 45.8724 178.155 45.4086C178.155 44.9448 178.239 44.5351 178.408 44.1775C178.576 43.8219 178.815 43.5446 179.129 43.3494C179.442 43.1533 179.808 43.0547 180.228 43.0547C180.518 43.0537 180.779 43.0953 181.011 43.1784Z" fill="#142E78"/>
<path d="M184.99 47.3547C184.834 47.4648 184.66 47.5479 184.466 47.603C184.274 47.6581 184.076 47.6861 183.876 47.6861C183.44 47.6803 183.109 47.5576 182.883 47.318C182.656 47.0773 182.542 46.7227 182.542 46.2521V43.9407H181.846V43.1783H182.542V42.2082L183.616 42.0845V43.1783H184.647L184.538 43.9407H183.615V46.228C183.615 46.4435 183.653 46.5981 183.728 46.6918C183.804 46.7855 183.923 46.8329 184.084 46.8329C184.246 46.8329 184.422 46.7807 184.612 46.6754L184.99 47.3547Z" fill="#142E78"/>
<path d="M189.065 45.6975H186.282C186.315 46.1227 186.427 46.4271 186.617 46.6097C186.808 46.7914 187.059 46.8832 187.372 46.8832C187.567 46.8832 187.752 46.8513 187.925 46.7885C188.098 46.7247 188.283 46.6271 188.479 46.4947L188.923 47.0996C188.431 47.492 187.883 47.6881 187.279 47.6881C186.602 47.6881 186.081 47.4842 185.715 47.0755C185.349 46.6667 185.165 46.1092 185.165 45.4019C185.165 44.9545 185.243 44.5525 185.4 44.1959C185.557 43.8403 185.783 43.561 186.079 43.3591C186.376 43.1571 186.728 43.0566 187.135 43.0566C187.755 43.0566 188.236 43.2518 188.577 43.6413C188.918 44.0307 189.089 44.5737 189.089 45.2695C189.091 45.3217 189.082 45.4647 189.065 45.6975ZM188.026 44.9603C188.026 44.192 187.738 43.8084 187.162 43.8084C186.899 43.8084 186.693 43.9031 186.546 44.0935C186.398 44.2848 186.31 44.5902 186.282 45.0095H188.026V44.9603Z" fill="#142E78"/>
<path d="M193.786 41.4216V47.5625H192.838L192.763 47.0078C192.623 47.2175 192.445 47.3837 192.231 47.5045C192.015 47.6262 191.772 47.6862 191.498 47.6862C190.955 47.6862 190.539 47.4794 190.249 47.0648C189.958 46.6503 189.812 46.0869 189.812 45.3738C189.812 44.9264 189.885 44.5273 190.031 44.1765C190.176 43.8258 190.384 43.5514 190.655 43.3523C190.926 43.1532 191.241 43.0537 191.599 43.0537C192.024 43.0537 192.396 43.2112 192.713 43.5262V41.3057L193.786 41.4216ZM192.302 46.7459C192.447 46.6541 192.584 46.5131 192.712 46.3188V44.3128C192.584 44.1582 192.453 44.0422 192.322 43.9649C192.191 43.8876 192.039 43.849 191.865 43.849C191.58 43.849 191.355 43.9746 191.19 44.2258C191.025 44.4771 190.943 44.8568 190.943 45.3651C190.943 45.9062 191.015 46.2947 191.161 46.5295C191.306 46.7643 191.519 46.8812 191.798 46.8812C191.989 46.8822 192.156 46.8368 192.302 46.7459Z" fill="#142E78"/>
</svg>
